<svg id="Group_2" data-name="Group 2" xmlns="http://www.w3.org/2000/svg" xmlns:xlink="http://www.w3.org/1999/xlink" width="1920" height="513" viewBox="0 0 1920 513">
  <defs>
    <clipPath id="clip-path">
      <rect id="Rectangle_2" data-name="Rectangle 2" width="1920" height="512" transform="translate(0 1)" fill="#fff" stroke="#707070" stroke-width="1"/>
    </clipPath>
  </defs>
  <g id="Rectangle_1" data-name="Rectangle 1" fill="#06afd5" stroke="#707070" stroke-width="1" opacity="0.563">
    <rect width="1920" height="513" stroke="none"/>
    <rect x="0.5" y="0.5" width="1919" height="512" fill="none"/>
  </g>
  <g id="Mask_Group_1" data-name="Mask Group 1" opacity="0.796" clip-path="url(#clip-path)">
    <path id="Path_1" data-name="Path 1" d="M-105.6,166.821s325.462-26.053,722.325,159.434,1287.642,165.672,1373.733,51.87" transform="translate(0 -84)" fill="none" stroke="#0599b4" stroke-width="2"/>
    <path id="Path_2" data-name="Path 2" d="M-105.6,166.821s325.462-26.053,722.325,159.434,1287.642,165.672,1373.733,51.87" transform="translate(0 -70)" fill="none" stroke="#0599b4" stroke-width="2"/>
    <path id="Path_3" data-name="Path 3" d="M-105.6,166.821s325.462-26.053,722.325,159.434,1287.642,165.672,1373.733,51.87" transform="translate(0 -56)" fill="none" stroke="#0599b4" stroke-width="2"/>
    <path id="Path_4" data-name="Path 4" d="M-105.6,166.821s325.462-26.053,722.325,159.434,1287.642,165.672,1373.733,51.87" transform="translate(0 -42)" fill="none" stroke="#0599b4" stroke-width="2"/>
    <path id="Path_5" data-name="Path 5" d="M-105.6,166.821s325.462-26.053,722.325,159.434,1287.642,165.672,1373.733,51.87" transform="translate(0 -27)" fill="none" stroke="#0599b4" stroke-width="2"/>
    <path id="Path_6" data-name="Path 6" d="M-105.6,166.821s325.462-26.053,722.325,159.434,1287.642,165.672,1373.733,51.87" transform="translate(0 -14)" fill="none" stroke="#0599b4" stroke-width="2"/>
    <path id="Path_7" data-name="Path 7" d="M-105.6,166.821s325.462-26.053,722.325,159.434,1287.642,165.672,1373.733,51.87" transform="translate(0 -1)" fill="none" stroke="#0599b4" stroke-width="2"/>
    <path id="Path_8" data-name="Path 8" d="M-105.6,166.821s325.462-26.053,722.325,159.434,1287.642,165.672,1373.733,51.87" transform="translate(0 14)" fill="none" stroke="#0599b4" stroke-width="2"/>
    <path id="Path_9" data-name="Path 9" d="M-105.6,166.821s325.462-26.053,722.325,159.434,1287.642,165.672,1373.733,51.87" transform="translate(0 28)" fill="none" stroke="#0599b4" stroke-width="2"/>
    <path id="Path_10" data-name="Path 10" d="M-105.6,166.821s325.462-26.053,722.325,159.434,1287.642,165.672,1373.733,51.87" transform="translate(0 42)" fill="none" stroke="#0599b4" stroke-width="2"/>
    <path id="Path_11" data-name="Path 11" d="M-105.6,166.821s325.462-26.053,722.325,159.434,1287.642,165.672,1373.733,51.87" transform="translate(0 58)" fill="none" stroke="#0599b4" stroke-width="2"/>
    <path id="Path_12" data-name="Path 12" d="M-105.6,166.821s325.462-26.053,722.325,159.434,1287.642,165.672,1373.733,51.87" transform="translate(0 73)" fill="none" stroke="#0599b4" stroke-width="2"/>
    <path id="Path_13" data-name="Path 13" d="M-105.6,166.821s325.462-26.053,722.325,159.434,1287.642,165.672,1373.733,51.87" transform="translate(0 88)" fill="none" stroke="#0599b4" stroke-width="2"/>
    <path id="Path_14" data-name="Path 14" d="M-105.6,166.821s325.462-26.053,722.325,159.434,1287.642,165.672,1373.733,51.87" transform="translate(0 104)" fill="none" stroke="#0599b4" stroke-width="2"/>
    <path id="Path_15" data-name="Path 15" d="M-105.6,166.821s325.462-26.053,722.325,159.434,1287.642,165.672,1373.733,51.87" transform="translate(0 121)" fill="none" stroke="#0599b4" stroke-width="2"/>
    <path id="Path_16" data-name="Path 16" d="M-105.6,166.821s325.462-26.053,722.325,159.434,1287.642,165.672,1373.733,51.87" transform="translate(0 136)" fill="none" stroke="#0599b4" stroke-width="2"/>
    <path id="Path_17" data-name="Path 17" d="M-105.6,166.821s325.462-26.053,722.325,159.434,1287.642,165.672,1373.733,51.87" transform="translate(0 152)" fill="none" stroke="#0599b4" stroke-width="2"/>
    <path id="Path_18" data-name="Path 18" d="M-105.6,166.821s325.462-26.053,722.325,159.434,1287.642,165.672,1373.733,51.87" transform="translate(0 167)" fill="none" stroke="#0599b4" stroke-width="2"/>
    <path id="Path_19" data-name="Path 19" d="M-105.6,166.821s325.462-26.053,722.325,159.434,1287.642,165.672,1373.733,51.87" transform="translate(0 182)" fill="none" stroke="#0599b4" stroke-width="2"/>
    <path id="Path_28" data-name="Path 28" d="M-105.6,166.821s325.462-26.053,722.325,159.434,1287.642,165.672,1373.733,51.87" transform="translate(0 259)" fill="none" stroke="#0599b4" stroke-width="2"/>
    <path id="Path_20" data-name="Path 20" d="M-105.6,166.821s325.462-26.053,722.325,159.434,1287.642,165.672,1373.733,51.87" transform="translate(0 198)" fill="none" stroke="#0599b4" stroke-width="2"/>
    <path id="Path_27" data-name="Path 27" d="M-105.6,166.821s325.462-26.053,722.325,159.434,1287.642,165.672,1373.733,51.87" transform="translate(0 275)" fill="none" stroke="#0599b4" stroke-width="2"/>
    <path id="Path_21" data-name="Path 21" d="M-105.6,166.821s325.462-26.053,722.325,159.434,1287.642,165.672,1373.733,51.87" transform="translate(0 215)" fill="none" stroke="#0599b4" stroke-width="2"/>
    <path id="Path_26" data-name="Path 26" d="M-105.6,166.821s325.462-26.053,722.325,159.434,1287.642,165.672,1373.733,51.87" transform="translate(0 292)" fill="none" stroke="#0599b4" stroke-width="2"/>
    <path id="Path_22" data-name="Path 22" d="M-105.6,166.821s325.462-26.053,722.325,159.434,1287.642,165.672,1373.733,51.87" transform="translate(0 229)" fill="none" stroke="#0599b4" stroke-width="2"/>
    <path id="Path_25" data-name="Path 25" d="M-105.6,166.821s325.462-26.053,722.325,159.434,1287.642,165.672,1373.733,51.87" transform="translate(0 306)" fill="none" stroke="#0599b4" stroke-width="2"/>
    <path id="Path_23" data-name="Path 23" d="M-105.6,166.821s325.462-26.053,722.325,159.434,1287.642,165.672,1373.733,51.87" transform="translate(0 244)" fill="none" stroke="#0599b4" stroke-width="2"/>
    <path id="Path_24" data-name="Path 24" d="M-105.6,166.821s325.462-26.053,722.325,159.434,1287.642,165.672,1373.733,51.87" transform="translate(0 321)" fill="none" stroke="#0599b4" stroke-width="2"/>
    <line id="Line_1" data-name="Line 1" y1="513" transform="translate(960.5 0.5)" fill="none" stroke="#0599b4" stroke-width="2"/>
    <line id="Line_5" data-name="Line 5" y1="513" transform="translate(1201.5 0.5)" fill="none" stroke="#0599b4" stroke-width="2"/>
    <line id="Line_7" data-name="Line 7" y1="513" transform="translate(719.5 0.5)" fill="none" stroke="#0599b4" stroke-width="2"/>
    <line id="Line_8" data-name="Line 8" y1="513" transform="translate(239.5 0.5)" fill="none" stroke="#0599b4" stroke-width="2"/>
    <line id="Line_6" data-name="Line 6" y1="513" transform="translate(1681.5 0.5)" fill="none" stroke="#0599b4" stroke-width="2"/>
    <line id="Line_3" data-name="Line 3" y1="513" transform="translate(480.5 0.5)" fill="none" stroke="#0599b4" stroke-width="2"/>
    <line id="Line_4" data-name="Line 4" y1="513" transform="translate(1441.5 0.5)" fill="none" stroke="#0599b4" stroke-width="2"/>
    <line id="Line_2" data-name="Line 2" y1="513" transform="translate(0.5 0.5)" fill="none" stroke="#0599b4" stroke-width="2"/>
  </g>
</svg>
